{"glyphs":{"0":{"ha":1183,"x_min":14,"x_max":1170,"o":"m 814 423 q 801 348 814 380 q 768 296 788 315 q 718 265 747 277 q 657 249 688 253 q 591 245 627 245 q 439 279 496 245 q 369 423 369 319 l 369 490 q 591 667 369 667 q 745 634 688 667 q 814 490 814 590 l 814 423 m 817 912 q 591 935 715 935 q 366 912 467 935 q 203 852 275 892 q 14 512 14 747 l 14 401 q 41 240 14 311 q 119 123 69 170 q 230 46 170 76 q 366 1 291 17 q 591 -22 467 -22 q 817 1 715 -22 q 981 60 906 20 q 1170 401 1170 166 l 1170 512 q 1151 644 1170 584 q 1101 748 1133 705 q 1023 824 1069 791 q 927 879 977 858 q 817 912 877 899 "},"1":{"ha":1005,"x_min":14,"x_max":991,"o":"m 336 911 l 58 823 l 58 534 l 336 623 l 336 267 l 14 267 l 14 0 l 991 0 l 991 267 l 692 267 l 692 911 l 336 911 "},"2":{"ha":1183,"x_min":14,"x_max":1170,"o":"m 1170 630 q 1133 771 1170 712 q 1022 866 1095 830 q 849 918 949 901 q 613 935 748 935 q 472 930 535 935 q 346 916 408 926 q 237 887 284 905 q 150 841 191 869 q 83 775 109 813 q 42 685 57 737 q 28 568 28 633 l 385 568 q 402 620 384 599 q 457 653 421 642 q 533 669 492 664 q 628 674 574 673 q 766 656 720 674 q 813 607 813 637 q 760 555 813 579 q 555 496 713 534 q 475 476 507 484 q 393 454 443 468 q 310 429 344 441 q 234 399 277 417 q 162 364 191 382 q 102 323 133 347 q 54 275 72 300 q 25 219 37 250 q 14 155 14 189 l 14 1 l 1155 1 l 1155 261 l 575 261 q 643 302 594 284 q 772 339 691 320 q 832 354 808 348 q 892 371 855 360 q 953 391 928 382 q 1009 415 978 401 q 1062 445 1041 430 q 1105 479 1083 459 q 1140 522 1127 500 q 1161 571 1153 544 q 1170 630 1170 599 "},"3":{"ha":1183,"x_min":14,"x_max":1170,"o":"m 1170 655 q 1025 865 1170 795 q 606 934 880 934 q 462 930 526 934 q 335 915 397 926 q 224 886 272 904 q 136 840 177 868 q 69 774 95 812 q 28 685 43 736 q 14 569 14 633 l 370 569 q 372 591 370 581 q 460 656 382 642 q 621 665 498 663 q 813 594 813 666 q 810 572 813 581 q 758 543 802 550 q 497 536 711 536 l 497 376 q 644 376 607 376 q 793 360 765 374 q 813 318 813 349 q 767 265 813 282 q 621 248 721 248 q 598 248 613 248 q 525 250 557 249 q 462 256 492 252 q 412 271 432 261 q 381 298 393 280 q 370 343 369 317 l 14 343 q 28 227 14 279 q 69 138 43 176 q 136 72 95 100 q 224 26 177 44 q 335 -3 272 8 q 462 -18 397 -14 q 606 -22 526 -22 q 1025 48 880 -22 q 1170 257 1170 117 q 1025 456 1170 389 q 1170 655 1170 524 "},"4":{"ha":1183,"x_min":14,"x_max":1170,"o":"m 369 422 l 680 650 l 680 422 l 369 422 m 680 911 l 14 422 l 14 155 l 680 155 l 680 0 l 1036 0 l 1036 155 l 1170 155 l 1170 422 l 1036 422 l 1036 911 l 680 911 "},"5":{"ha":1183,"x_min":14,"x_max":1170,"o":"m 406 582 l 425 667 l 1103 667 l 1103 912 l 125 912 l 14 423 l 14 421 l 497 421 q 664 414 598 421 q 761 391 730 406 q 803 359 792 376 q 813 318 813 342 q 767 265 813 282 q 621 248 721 248 q 598 248 613 248 q 525 250 557 249 q 462 256 492 252 q 412 271 432 261 q 381 298 393 280 q 370 343 369 317 l 14 343 q 28 227 14 279 q 69 138 43 176 q 136 72 95 100 q 224 26 177 44 q 335 -3 272 8 q 462 -18 397 -14 q 606 -22 526 -22 q 1022 58 875 -22 q 1170 279 1170 137 q 1158 363 1170 325 q 1127 430 1147 401 q 1076 481 1107 458 q 1009 520 1044 504 q 927 547 975 536 q 833 565 879 559 q 728 576 788 572 q 616 581 668 580 q 497 582 564 582 l 406 582 "},"6":{"ha":1183,"x_min":14,"x_max":1170,"o":"m 851 311 q 831 263 851 283 q 783 234 810 243 q 719 218 756 224 q 657 210 682 212 q 610 209 633 209 q 482 215 537 209 q 400 228 427 220 q 356 247 373 236 q 336 265 340 258 q 332 279 332 272 l 332 367 l 353 372 q 496 389 399 383 q 689 387 593 396 q 833 345 785 379 q 851 311 851 330 m 1092 468 q 911 551 1020 526 q 688 583 804 577 q 484 581 576 587 q 363 570 397 576 l 331 564 l 331 587 q 349 639 331 618 q 397 669 368 661 q 450 682 427 678 q 498 685 474 685 l 1100 685 l 1100 912 l 607 912 q 435 906 510 912 q 291 886 361 901 q 172 845 221 871 q 86 779 123 819 q 32 683 50 740 q 14 553 14 627 l 14 337 q 32 207 14 263 q 86 111 50 150 q 172 46 123 72 q 291 5 221 20 q 435 -16 361 -10 q 607 -22 510 -22 q 784 -11 704 -22 q 922 17 865 -1 q 1023 60 979 35 q 1095 114 1067 85 q 1139 175 1122 142 q 1163 239 1157 208 q 1170 304 1170 271 q 1092 468 1170 402 "},"7":{"ha":1094,"x_min":14,"x_max":1080,"o":"m 703 645 l 125 0 l 570 0 l 1080 645 l 1080 911 l 14 911 l 14 645 l 703 645 "},"8":{"ha":1183,"x_min":14,"x_max":1170,"o":"m 591 231 q 429 253 478 231 q 380 318 380 276 q 428 381 380 359 q 591 403 477 403 q 718 392 669 403 q 784 363 766 381 q 803 318 803 345 q 591 231 803 231 m 696 701 q 748 682 734 694 q 761 649 761 669 q 748 616 761 628 q 698 596 736 604 q 591 589 660 589 q 486 596 524 589 q 435 616 448 604 q 422 649 422 628 q 435 682 422 669 q 486 701 448 694 q 591 709 524 709 q 677 705 659 709 q 696 701 696 701 m 957 513 q 1071 694 1071 572 q 1024 829 1071 777 q 871 907 977 881 q 591 934 765 934 q 223 877 334 934 q 112 694 112 819 q 227 513 112 570 q 64 424 114 483 q 14 272 14 365 q 41 145 14 197 q 134 54 68 92 q 312 -3 199 15 q 591 -22 425 -22 q 823 -9 724 -22 q 988 26 922 3 q 1095 86 1055 50 q 1153 168 1135 123 q 1170 272 1170 213 q 1119 424 1170 364 q 957 513 1069 483 "},"9":{"ha":1183,"x_min":14,"x_max":1170,"o":"m 332 602 q 352 649 332 629 q 400 679 372 669 q 464 695 427 689 q 526 703 501 701 q 572 704 550 704 q 701 698 646 704 q 783 684 755 692 q 827 665 811 676 q 847 648 844 654 q 851 634 851 641 l 852 545 l 831 541 q 687 523 787 530 q 494 525 590 517 q 351 568 397 534 q 332 602 332 583 m 91 445 q 271 361 163 387 q 495 330 384 334 q 699 331 607 325 q 820 343 789 337 l 852 349 l 852 326 q 833 274 852 295 q 786 243 815 252 q 733 231 756 235 q 685 228 709 228 l 83 228 l 83 1 l 576 1 q 725 5 659 1 q 854 19 791 9 q 964 47 917 30 q 1051 93 1011 65 q 1117 157 1091 120 q 1156 245 1142 195 q 1170 359 1170 296 l 1170 575 q 1156 689 1170 639 q 1117 778 1142 740 q 1051 843 1091 815 q 964 888 1011 870 q 854 916 917 905 q 725 930 791 926 q 576 935 659 935 q 399 924 479 935 q 261 896 318 913 q 159 853 203 878 q 88 799 115 827 q 44 738 61 771 q 20 673 26 704 q 14 608 14 642 q 91 445 14 511 "},"§":{"ha":586,"x_min":14,"x_max":572,"o":"m 572 0 l 572 972 l 14 972 l 14 0 l 572 0 m 47 939 l 538 939 l 538 34 l 47 34 l 47 939 m 149 719 q 217 772 201 763 q 251 781 232 781 q 299 761 281 781 q 317 701 317 741 q 262 553 317 649 q 207 407 207 456 q 233 302 207 374 l 288 302 q 271 396 271 372 q 295 466 271 430 q 362 555 320 502 q 421 643 406 609 q 437 708 437 677 q 395 795 437 760 q 281 831 354 831 q 192 807 234 831 q 149 775 171 795 l 149 719 m 203 224 q 196 210 196 217 q 201 199 196 204 l 243 151 q 262 142 251 142 q 281 153 270 142 l 319 195 q 326 210 326 202 q 321 222 326 215 l 283 263 q 262 273 271 273 q 243 264 252 273 l 203 224 "},"¨":{"ha":586,"x_min":14,"x_max":572,"o":"m 572 0 l 14 0 l 14 972 l 572 972 l 572 0 m 47 939 l 47 34 l 538 34 l 538 939 l 47 939 m 149 719 l 149 775 q 192 807 171 795 q 281 831 234 831 q 395 795 354 831 q 437 708 437 760 q 421 643 437 677 q 362 555 406 609 q 295 466 320 502 q 271 396 271 430 q 288 302 271 372 l 233 302 q 207 407 207 374 q 262 553 207 456 q 317 701 317 649 q 299 761 317 741 q 251 781 281 781 q 217 772 232 781 q 149 719 201 763 m 203 224 l 243 264 q 262 273 252 273 q 283 263 271 273 l 321 222 q 326 210 326 215 q 319 195 326 202 l 281 153 q 262 142 270 142 q 243 151 251 142 l 201 199 q 196 210 196 204 q 203 224 196 217 "},"ª":{"ha":586,"x_min":14,"x_max":572,"o":"m 572 0 l 572 972 l 14 972 l 14 0 l 572 0 m 47 939 l 538 939 l 538 34 l 47 34 l 47 939 m 149 719 q 217 772 201 763 q 251 781 232 781 q 299 761 281 781 q 317 701 317 741 q 262 553 317 649 q 207 407 207 456 q 233 302 207 374 l 288 302 q 271 396 271 372 q 295 466 271 430 q 362 555 320 502 q 421 643 406 609 q 437 708 437 677 q 395 795 437 760 q 281 831 354 831 q 192 807 234 831 q 149 775 171 795 l 149 719 m 203 224 q 196 210 196 217 q 201 199 196 204 l 243 151 q 262 142 251 142 q 281 153 270 142 l 319 195 q 326 210 326 202 q 321 222 326 215 l 283 263 q 262 273 271 273 q 243 264 252 273 l 203 224 "},"«":{"ha":586,"x_min":14,"x_max":572,"o":"m 572 0 l 14 0 l 14 972 l 572 972 l 572 0 m 47 939 l 47 34 l 538 34 l 538 939 l 47 939 m 149 719 l 149 775 q 192 807 171 795 q 281 831 234 831 q 395 795 354 831 q 437 708 437 760 q 421 643 437 677 q 362 555 406 609 q 295 466 320 502 q 271 396 271 430 q 288 302 271 372 l 233 302 q 207 407 207 374 q 262 553 207 456 q 317 701 317 649 q 299 761 317 741 q 251 781 281 781 q 217 772 232 781 q 149 719 201 763 m 203 224 l 243 264 q 262 273 252 273 q 283 263 271 273 l 321 222 q 326 210 326 215 q 319 195 326 202 l 281 153 q 262 142 270 142 q 243 151 251 142 l 201 199 q 196 210 196 204 q 203 224 196 217 "},"¬":{"ha":586,"x_min":14,"x_max":572,"o":"m 572 0 l 572 972 l 14 972 l 14 0 l 572 0 m 47 939 l 538 939 l 538 34 l 47 34 l 47 939 m 149 719 q 217 772 201 763 q 251 781 232 781 q 299 761 281 781 q 317 701 317 741 q 262 553 317 649 q 207 407 207 456 q 233 302 207 374 l 288 302 q 271 396 271 372 q 295 466 271 430 q 362 555 320 502 q 421 643 406 609 q 437 708 437 677 q 395 795 437 760 q 281 831 354 831 q 192 807 234 831 q 149 775 171 795 l 149 719 m 203 224 q 196 210 196 217 q 201 199 196 204 l 243 151 q 262 142 251 142 q 281 153 270 142 l 319 195 q 326 210 326 202 q 321 222 326 215 l 283 263 q 262 273 271 273 q 243 264 252 273 l 203 224 "},"¯":{"ha":586,"x_min":14,"x_max":572,"o":"m 572 0 l 14 0 l 14 972 l 572 972 l 572 0 m 47 939 l 47 34 l 538 34 l 538 939 l 47 939 m 149 719 l 149 775 q 192 807 171 795 q 281 831 234 831 q 395 795 354 831 q 437 708 437 760 q 421 643 437 677 q 362 555 406 609 q 295 466 320 502 q 271 396 271 430 q 288 302 271 372 l 233 302 q 207 407 207 374 q 262 553 207 456 q 317 701 317 649 q 299 761 317 741 q 251 781 281 781 q 217 772 232 781 q 149 719 201 763 m 203 224 l 243 264 q 262 273 252 273 q 283 263 271 273 l 321 222 q 326 210 326 215 q 319 195 326 202 l 281 153 q 262 142 270 142 q 243 151 251 142 l 201 199 q 196 210 196 204 q 203 224 196 217 "},"°":{"ha":586,"x_min":14,"x_max":572,"o":"m 572 0 l 572 972 l 14 972 l 14 0 l 572 0 m 47 939 l 538 939 l 538 34 l 47 34 l 47 939 m 149 719 q 217 772 201 763 q 251 781 232 781 q 299 761 281 781 q 317 701 317 741 q 262 553 317 649 q 207 407 207 456 q 233 302 207 374 l 288 302 q 271 396 271 372 q 295 466 271 430 q 362 555 320 502 q 421 643 406 609 q 437 708 437 677 q 395 795 437 760 q 281 831 354 831 q 192 807 234 831 q 149 775 171 795 l 149 719 m 203 224 q 196 210 196 217 q 201 199 196 204 l 243 151 q 262 142 251 142 q 281 153 270 142 l 319 195 q 326 210 326 202 q 321 222 326 215 l 283 263 q 262 273 271 273 q 243 264 252 273 l 203 224 "}," ":{"ha":678,"x_min":0,"x_max":0,"o":""}," ":{"ha":678,"x_min":0,"x_max":0,"o":""},"!":{"ha":382,"x_min":14,"x_max":369,"o":"m 14 1000 l 14 400 l 369 400 l 369 1000 l 14 1000 m 14 267 l 14 0 l 369 0 l 369 267 l 14 267 "},"\"":{"ha":712,"x_min":14,"x_max":699,"o":"m 632 489 l 699 1000 l 387 1000 l 454 489 l 632 489 m 258 489 l 325 1000 l 14 1000 l 80 489 l 258 489 "},"#":{"ha":1522,"x_min":14,"x_max":1508,"o":"m 903 578 l 864 422 l 620 422 l 658 578 l 903 578 m 517 0 l 555 155 l 799 155 l 761 0 l 1095 0 l 1133 155 l 1419 155 l 1419 422 l 1198 422 l 1236 578 l 1508 578 l 1508 845 l 1301 845 l 1339 1000 l 1006 1000 l 968 845 l 723 845 l 761 1000 l 428 1000 l 389 845 l 102 845 l 102 578 l 324 578 l 286 422 l 14 422 l 14 155 l 221 155 l 183 0 l 517 0 "},"$":{"ha":1227,"x_min":14,"x_max":1214,"o":"m 376 620 q 407 670 376 647 q 514 700 438 692 l 514 584 q 401 594 427 587 q 376 620 376 600 m 865 313 q 859 291 865 302 q 838 268 852 280 q 791 245 823 255 q 714 231 760 235 l 714 357 q 812 350 781 355 q 854 337 843 345 q 865 313 865 330 m 14 317 q 35 197 14 249 q 96 111 56 146 q 199 54 136 76 q 338 20 262 31 q 514 5 413 9 l 514 -136 l 714 -136 l 714 6 q 1088 90 963 16 q 1214 321 1214 165 q 1199 409 1214 370 q 1153 474 1184 447 q 1082 519 1122 500 q 982 549 1042 537 q 860 566 922 560 q 714 576 798 572 l 714 694 q 847 627 847 673 l 1196 627 q 714 922 1196 899 l 714 1065 l 514 1065 l 514 923 q 152 838 276 911 q 27 635 27 765 q 140 438 27 498 q 514 365 253 378 l 514 232 q 363 317 363 250 l 14 317 "},"%":{"ha":1908,"x_min":14,"x_max":1894,"o":"m 609 0 l 943 0 l 1298 1000 l 965 1000 l 609 0 m 1412 321 q 1440 390 1412 368 q 1531 412 1469 412 q 1616 394 1588 412 q 1650 321 1650 374 l 1650 279 q 1621 210 1650 232 q 1531 188 1592 188 q 1446 206 1474 188 q 1412 279 1412 227 l 1412 321 m 1390 14 q 1531 0 1463 0 q 1672 14 1599 0 q 1775 52 1726 25 q 1894 265 1894 117 l 1894 335 q 1877 436 1894 391 q 1828 510 1860 480 q 1758 558 1796 539 q 1672 587 1720 576 q 1531 600 1599 600 q 1390 587 1463 600 q 1286 549 1336 575 q 1168 335 1168 484 l 1168 265 q 1390 14 1168 64 m 258 721 q 286 790 258 768 q 376 812 315 812 q 461 794 433 812 q 496 721 496 774 l 496 680 q 467 610 496 632 q 376 588 438 588 q 292 606 320 588 q 258 680 258 627 l 258 721 m 132 949 q 14 735 14 884 l 14 665 q 235 414 14 463 q 376 400 309 400 q 518 414 444 400 q 621 452 572 425 q 739 665 739 516 l 739 735 q 518 987 741 936 q 376 1000 444 1000 q 235 987 309 1000 q 132 949 180 975 "},"&":{"ha":1227,"x_min":14,"x_max":1214,"o":"m 781 317 q 722 254 781 277 q 547 230 663 230 q 384 253 433 230 q 336 317 336 275 q 354 363 336 345 q 421 392 373 381 q 547 402 469 402 l 781 402 l 781 317 m 1080 402 l 1214 402 l 1214 577 l 758 577 l 547 577 q 462 583 496 577 q 410 598 427 588 q 385 621 392 609 q 378 648 378 633 q 547 730 378 730 q 629 725 594 730 q 682 715 663 721 q 712 699 700 709 q 729 682 725 688 q 736 663 732 675 l 1025 663 q 1026 693 1026 682 q 962 844 1026 788 q 758 920 899 900 q 547 934 669 934 q 178 876 289 934 q 68 693 68 819 q 182 513 68 570 q 105 479 137 500 q 56 435 73 458 q 28 380 39 412 q 16 326 18 349 q 14 271 14 302 q 20 219 14 245 q 42 163 26 193 q 82 107 58 133 q 149 57 107 81 q 245 15 191 33 q 377 -12 299 -2 q 547 -22 454 -22 q 774 -2 675 -22 q 929 47 872 18 q 1021 118 985 77 q 1068 196 1057 159 q 1080 271 1080 233 l 1080 402 "},"'":{"ha":338,"x_min":14,"x_max":325,"o":"m 258 489 l 325 1000 l 14 1000 l 80 489 l 258 489 "},"(":{"ha":627,"x_min":12,"x_max":614,"o":"m 614 -137 l 614 130 l 436 130 q 357 162 390 130 q 325 241 325 195 l 325 686 q 357 764 325 732 q 436 797 390 797 l 614 797 l 614 1063 l 325 1063 q 105 972 197 1065 q 14 752 12 880 l 14 174 q 105 -46 12 47 q 325 -137 197 -138 l 614 -137 "},")":{"ha":627,"x_min":14,"x_max":615,"o":"m 302 -137 q 523 -46 430 -138 q 614 174 615 47 l 614 752 q 523 972 615 880 q 302 1063 430 1065 l 14 1063 l 14 797 l 191 797 q 270 764 237 797 q 302 686 302 732 l 302 241 q 270 162 302 195 q 191 130 237 130 l 14 130 l 14 -137 l 302 -137 "},"*":{"ha":737,"x_min":14,"x_max":724,"o":"m 272 326 l 368 536 l 466 326 l 664 469 l 492 627 l 724 654 l 648 886 l 445 772 l 491 1000 l 246 1000 l 292 772 l 89 886 l 14 654 l 244 627 l 74 469 l 272 326 "},"+":{"ha":1094,"x_min":14,"x_max":1080,"o":"m 391 903 l 391 591 l 14 591 l 14 325 l 391 325 l 391 14 l 703 14 l 703 325 l 1080 325 l 1080 591 l 703 591 l 703 903 l 391 903 "},",":{"ha":382,"x_min":14,"x_max":369,"o":"m 214 -267 l 369 0 l 369 267 l 14 267 l 14 0 l 169 0 l 80 -267 l 214 -267 "},"-":{"ha":1027,"x_min":14,"x_max":1014,"o":"m 14 589 l 14 323 l 1014 323 l 1014 589 l 14 589 "},"­":{"ha":1027,"x_min":14,"x_max":1014,"o":"m 14 589 l 1014 589 l 1014 323 l 14 323 l 14 589 "},".":{"ha":382,"x_min":14,"x_max":369,"o":"m 14 267 l 14 0 l 369 0 l 369 267 l 14 267 "},"/":{"ha":783,"x_min":14,"x_max":770,"o":"m 369 -35 l 770 965 l 414 965 l 14 -35 l 369 -35 "},":":{"ha":382,"x_min":14,"x_max":369,"o":"m 14 756 l 14 489 l 369 489 l 369 756 l 14 756 m 14 267 l 14 0 l 369 0 l 369 267 l 14 267 "},";":{"ha":382,"x_min":14,"x_max":369,"o":"m 14 756 l 14 490 l 369 490 l 369 756 l 14 756 m 214 -267 l 369 0 l 369 267 l 14 267 l 14 0 l 169 0 l 80 -267 l 214 -267 "},"<":{"ha":1094,"x_min":14,"x_max":1080,"o":"m 14 589 l 14 323 l 1080 56 l 1080 323 l 547 456 l 1080 589 l 1080 856 l 14 589 "},"=":{"ha":1094,"x_min":14,"x_max":1080,"o":"m 14 800 l 14 533 l 1080 533 l 1080 800 l 14 800 m 14 379 l 14 113 l 1080 113 l 1080 379 l 14 379 "},">":{"ha":1094,"x_min":14,"x_max":1080,"o":"m 14 589 l 547 456 l 14 323 l 14 56 l 1080 323 l 1080 589 l 14 856 l 14 589 "},"?":{"ha":1116,"x_min":14,"x_max":1103,"o":"m 302 701 q 333 758 302 745 q 447 771 364 771 l 669 771 q 783 757 753 771 q 814 701 814 743 q 805 679 814 688 q 778 663 797 670 q 742 651 760 656 q 693 641 724 647 q 633 629 658 634 q 572 611 608 623 q 510 585 535 599 q 456 547 484 571 q 410 495 427 524 q 380 425 392 466 q 369 334 369 383 l 725 334 q 731 384 725 361 q 745 422 736 406 q 769 452 754 439 q 798 474 785 465 q 833 490 812 482 q 871 502 855 498 q 911 512 886 507 q 952 523 939 519 q 990 535 965 526 q 1027 552 1015 544 q 1057 575 1040 560 q 1082 606 1074 589 q 1097 647 1090 623 q 1103 701 1103 671 q 1100 761 1103 734 q 1088 820 1097 788 q 1062 877 1078 852 q 1018 925 1046 901 q 950 965 989 949 q 854 991 911 981 q 725 1000 797 1000 l 391 1000 q 186 973 262 1000 q 74 903 111 945 q 14 701 14 834 q 14 678 14 686 l 302 678 l 302 701 m 725 0 l 725 222 l 369 222 l 369 0 l 725 0 "},"@":{"ha":1294,"x_min":14,"x_max":1280,"o":"m 947 444 q 764 357 871 357 q 644 379 669 357 q 620 452 620 399 q 629 508 620 490 q 670 537 638 527 q 764 548 701 548 q 867 525 824 548 q 947 460 913 500 l 954 452 l 947 444 m 1280 734 q 1259 862 1280 805 q 1203 957 1238 919 q 1118 1024 1169 996 q 1015 1068 1066 1053 q 897 1093 963 1084 q 777 1105 830 1103 q 659 1108 724 1108 q 439 1092 557 1108 q 224 1037 319 1076 q 14 719 14 949 l 14 186 q 224 -132 14 -45 q 427 -187 318 -171 q 636 -203 536 -203 l 659 -203 l 659 41 l 636 41 q 556 45 598 41 q 464 62 515 50 q 373 93 412 74 q 307 144 334 111 q 280 219 280 177 l 280 686 q 309 761 280 728 q 381 812 338 793 q 478 843 423 831 q 576 859 532 855 q 659 863 620 863 q 767 858 695 863 q 889 836 834 853 q 1014 697 1014 794 l 1014 611 l 996 631 q 975 653 993 635 q 716 753 864 753 q 431 664 509 753 q 369 452 369 593 q 431 241 369 311 q 716 152 509 152 q 872 184 798 152 q 975 252 930 210 q 996 273 993 270 l 1014 294 l 1014 163 l 1280 163 l 1280 734 "},"A":{"ha":1428,"x_min":14,"x_max":1414,"o":"m 714 647 l 839 378 l 589 378 l 714 647 m 14 -1 l 414 -1 l 486 155 l 942 155 l 1014 -1 l 1414 -1 l 925 911 l 503 911 l 14 -1 "},"B":{"ha":1250,"x_min":14,"x_max":1238,"o":"m 369 216 l 369 338 l 847 338 q 886 320 869 338 q 903 277 903 301 q 886 235 903 254 q 847 216 869 216 l 369 216 m 781 694 q 820 676 803 694 q 836 633 836 657 q 820 591 836 610 q 781 572 803 572 l 369 572 l 369 694 l 781 694 m 1064 471 q 1142 552 1114 503 q 1170 667 1170 602 q 1148 771 1171 724 q 1085 849 1125 819 q 992 895 1045 879 q 880 911 940 911 l 14 911 l 14 -1 l 947 -1 q 1154 64 1071 -1 q 1236 244 1238 130 q 1190 387 1236 328 q 1064 471 1143 445 "},"C":{"ha":1270,"x_min":13,"x_max":1257,"o":"m 892 378 q 804 292 869 316 q 636 267 739 267 q 552 272 589 268 q 479 288 515 276 q 420 319 444 300 q 383 370 397 338 q 370 445 369 401 l 370 467 q 383 543 369 511 q 420 594 397 575 q 479 625 444 613 q 552 640 515 636 q 636 645 588 644 q 804 621 739 645 q 892 534 869 597 l 1257 534 q 636 935 1227 933 q 439 921 528 934 q 270 876 351 908 q 133 795 189 844 q 45 668 78 745 q 14 490 13 590 l 14 423 q 45 244 13 322 q 133 117 78 167 q 270 36 189 68 q 440 -9 351 4 q 636 -22 529 -22 q 1257 378 1227 -22 l 892 378 "},"D":{"ha":1272,"x_min":14,"x_max":1259,"o":"m 903 455 q 864 336 903 384 q 758 288 825 288 l 369 288 l 369 622 l 758 622 q 864 574 825 622 q 903 455 903 527 m 14 911 l 14 -1 l 825 -1 q 1047 60 947 -2 q 1204 227 1148 122 q 1259 455 1259 332 q 1204 684 1259 578 q 1047 850 1148 789 q 825 911 947 912 l 14 911 "},"E":{"ha":1094,"x_min":14,"x_max":1080,"o":"m 14 -1 l 1080 -1 l 1080 233 l 369 233 l 369 350 l 1080 350 l 1080 561 l 369 561 l 369 677 l 1080 677 l 1080 911 l 14 911 l 14 -1 "},"F":{"ha":1139,"x_min":14,"x_max":1125,"o":"m 14 -1 l 369 -1 l 369 244 l 1036 244 l 1036 511 l 369 511 l 369 622 l 1125 622 l 1125 911 l 14 911 l 14 -1 "},"G":{"ha":1266,"x_min":13,"x_max":1253,"o":"m 633 345 l 920 345 q 819 282 882 297 q 636 268 755 268 q 552 273 588 269 q 479 288 515 277 q 420 319 443 300 q 382 370 397 338 q 369 446 368 402 l 369 468 q 382 543 368 511 q 420 594 397 575 q 479 625 443 613 q 552 641 515 637 q 636 646 588 645 q 778 629 715 646 q 875 568 842 613 l 1253 568 q 636 935 1200 935 q 493 928 560 935 q 362 906 427 922 q 246 868 298 891 q 150 809 194 844 q 76 729 106 774 q 30 623 46 684 q 14 490 14 562 l 14 423 q 45 245 13 323 q 133 118 77 168 q 269 37 188 68 q 439 -8 350 5 q 636 -22 528 -21 q 872 12 762 -22 q 1057 120 983 46 l 1075 -22 l 1253 -22 l 1253 501 l 633 501 l 633 345 "},"H":{"ha":1272,"x_min":14,"x_max":1259,"o":"m 903 312 l 903 1 l 1259 1 l 1259 912 l 903 912 l 903 601 l 369 601 l 369 912 l 14 912 l 14 1 l 369 1 l 369 312 l 903 312 "},"I":{"ha":382,"x_min":14,"x_max":369,"o":"m 14 912 l 14 1 l 369 1 l 369 912 l 14 912 "},"J":{"ha":1272,"x_min":13,"x_max":1258,"o":"m 903 445 q 889 369 903 401 q 852 318 875 337 q 792 288 829 299 q 720 272 756 276 q 635 267 684 268 q 551 272 587 268 q 479 288 515 276 q 420 318 443 299 q 382 369 397 337 q 369 445 368 401 l 369 534 l 14 534 l 14 422 q 45 244 13 322 q 133 117 77 167 q 269 36 188 68 q 438 -9 349 4 q 635 -22 528 -22 q 1258 422 1258 -22 l 1258 911 l 903 911 l 903 445 "},"K":{"ha":1339,"x_min":14,"x_max":1325,"o":"m 524 312 l 859 1 l 1325 1 l 852 456 l 1325 912 l 859 912 l 524 601 l 369 601 l 369 912 l 14 912 l 14 1 l 369 1 l 369 312 l 524 312 "},"L":{"ha":1094,"x_min":14,"x_max":1080,"o":"m 14 912 l 14 1 l 1080 1 l 1080 290 l 369 290 l 369 912 l 14 912 "},"M":{"ha":1628,"x_min":14,"x_max":1614,"o":"m 14 1 l 369 1 l 369 487 l 725 1 l 903 1 l 1259 487 l 1259 1 l 1614 1 l 1614 912 l 1170 912 l 814 456 l 458 912 l 14 912 l 14 1 "},"N":{"ha":1272,"x_min":14,"x_max":1259,"o":"m 903 429 l 503 912 l 14 912 l 14 1 l 369 1 l 369 557 l 859 1 l 1259 1 l 1259 912 l 903 912 l 903 429 "},"O":{"ha":1272,"x_min":14,"x_max":1259,"o":"m 636 935 q 493 928 560 935 q 362 906 427 922 q 246 868 298 891 q 150 809 194 844 q 76 729 106 774 q 30 623 46 684 q 14 490 14 562 l 14 423 q 30 290 14 351 q 76 184 46 230 q 150 104 106 139 q 246 45 194 68 q 362 6 298 22 q 493 -15 427 -9 q 636 -22 560 -22 q 833 -8 744 -22 q 1003 36 922 5 q 1139 118 1084 68 q 1226 245 1194 168 q 1258 423 1259 323 l 1258 490 q 636 935 1258 935 m 903 446 q 889 370 903 402 q 852 319 875 338 q 793 288 829 300 q 720 272 757 276 q 636 267 684 268 q 552 272 588 268 q 479 288 515 276 q 420 319 443 300 q 382 370 397 338 q 369 446 368 402 l 369 468 q 382 543 368 511 q 420 594 397 575 q 479 625 443 613 q 552 641 515 637 q 636 646 588 645 q 720 641 684 645 q 793 625 757 637 q 852 594 829 613 q 889 543 875 575 q 903 468 903 511 l 903 446 "},"P":{"ha":1250,"x_min":14,"x_max":1238,"o":"m 369 489 l 369 644 l 803 644 q 857 621 835 644 q 880 566 880 599 q 857 511 880 534 q 803 489 835 489 l 369 489 m 14 911 l 14 -1 l 369 -1 l 369 222 l 892 222 q 1064 267 984 220 q 1191 394 1144 314 q 1236 566 1238 474 q 1191 739 1238 659 q 1064 865 1144 819 q 892 911 984 911 l 14 911 "},"Q":{"ha":1272,"x_min":13,"x_max":1259,"o":"m 1259 489 q 1227 667 1259 589 q 1139 794 1194 745 q 1003 876 1084 844 q 833 920 922 907 q 636 934 744 933 q 439 920 528 933 q 270 876 351 907 q 133 794 189 844 q 45 667 78 745 q 14 489 13 589 l 14 422 q 45 244 13 321 q 133 117 78 166 q 270 36 189 67 q 439 -9 351 4 q 636 -22 528 -22 q 766 -17 699 -22 l 880 -200 l 1259 -200 l 1073 69 q 1259 422 1259 178 l 1259 489 m 636 267 q 552 271 588 267 q 479 287 515 275 q 420 318 443 299 q 382 369 397 337 q 369 444 368 401 l 369 467 q 382 542 368 510 q 420 593 397 574 q 479 624 443 612 q 552 640 515 635 q 636 644 588 644 q 721 640 684 644 q 793 624 757 635 q 852 593 829 612 q 889 542 875 574 q 903 467 903 510 l 903 444 q 889 369 903 401 q 852 318 875 337 q 793 287 829 299 q 720 271 757 275 q 636 267 684 267 "},"R":{"ha":1250,"x_min":14,"x_max":1238,"o":"m 14 911 l 14 0 l 369 0 l 369 222 l 686 222 l 858 0 l 1236 0 l 1038 256 q 1181 380 1127 297 q 1236 567 1236 464 q 1191 739 1238 659 q 1064 866 1144 819 q 892 911 984 912 l 14 911 m 802 645 q 858 622 835 645 q 880 567 880 600 q 857 512 880 535 q 802 490 835 490 l 369 490 l 369 645 l 802 645 "},"S":{"ha":1264,"x_min":13,"x_max":1251,"o":"m 386 612 q 408 656 386 637 q 468 684 430 674 q 546 697 507 693 q 632 701 586 701 q 788 681 726 701 q 878 612 850 662 l 1251 612 q 1222 719 1244 671 q 1170 800 1200 767 q 1093 858 1139 833 q 1000 897 1047 882 q 888 919 952 911 q 766 931 824 928 q 632 935 707 934 q 14 612 14 935 q 18 572 14 591 q 298 385 46 433 q 625 353 403 365 q 694 350 669 351 q 753 346 719 349 q 806 339 787 342 q 843 331 825 336 q 870 318 862 326 q 878 300 878 310 q 856 257 878 275 q 796 229 833 239 q 718 216 758 220 q 632 212 677 212 q 477 231 540 212 q 386 300 414 251 l 14 300 q 42 194 21 241 q 95 113 64 146 q 171 55 125 79 q 265 16 217 31 q 376 -7 313 2 q 498 -19 439 -16 q 632 -22 557 -22 q 820 -14 734 -22 q 987 17 905 -5 q 1126 75 1069 39 q 1216 167 1182 110 q 1251 300 1251 224 q 1246 340 1251 321 q 966 528 1218 480 q 640 559 861 548 q 446 575 505 566 q 386 612 386 585 "},"T":{"ha":1227,"x_min":14,"x_max":1214,"o":"m 791 -1 l 791 622 l 1214 622 l 1214 911 l 14 911 l 14 622 l 436 622 l 436 -1 l 791 -1 "},"U":{"ha":1272,"x_min":13,"x_max":1259,"o":"m 903 445 q 889 369 903 401 q 852 318 875 337 q 793 288 829 299 q 721 272 757 276 q 636 267 684 268 q 552 272 588 268 q 479 288 515 276 q 420 318 443 299 q 382 369 397 337 q 369 445 368 401 l 369 912 l 14 912 l 14 422 q 45 244 13 322 q 133 117 78 167 q 270 36 189 68 q 440 -9 351 4 q 636 -22 529 -22 q 832 -9 743 -22 q 1003 36 922 4 q 1139 117 1084 68 q 1227 244 1194 167 q 1259 422 1259 322 l 1259 912 l 903 912 l 903 445 "},"V":{"ha":1383,"x_min":14,"x_max":1370,"o":"m 414 911 l 14 911 l 480 -1 l 903 -1 l 1370 911 l 970 911 l 692 278 l 414 911 "},"W":{"ha":2072,"x_min":14,"x_max":2059,"o":"m 1447 334 l 1236 911 l 836 911 l 625 334 l 414 911 l 14 911 l 414 -1 l 836 -1 l 1036 455 l 1236 -1 l 1659 -1 l 2059 911 l 1659 911 l 1447 334 "},"X":{"ha":1428,"x_min":14,"x_max":1414,"o":"m 714 645 l 458 911 l 14 911 l 492 455 l 14 -1 l 458 -1 l 714 266 l 970 -1 l 1414 -1 l 936 455 l 1414 911 l 970 911 l 714 645 "},"Y":{"ha":1405,"x_min":14,"x_max":1392,"o":"m 436 911 l 14 911 l 525 311 l 525 -1 l 880 -1 l 880 311 l 1392 911 l 970 911 l 703 584 l 436 911 "},"Z":{"ha":1205,"x_min":14,"x_max":1192,"o":"m 614 622 l 14 289 l 14 -1 l 1192 -1 l 1192 289 l 570 289 l 1192 622 l 1192 911 l 14 911 l 14 622 l 614 622 "},"[":{"ha":627,"x_min":14,"x_max":614,"o":"m 325 131 l 325 798 l 614 798 l 614 1065 l 14 1065 l 14 -136 l 614 -136 l 614 131 l 325 131 "},"\\":{"ha":783,"x_min":14,"x_max":770,"o":"m 369 965 l 14 965 l 414 -35 l 770 -35 l 369 965 "},"]":{"ha":627,"x_min":14,"x_max":614,"o":"m 14 -136 l 614 -136 l 614 1065 l 14 1065 l 14 798 l 302 798 l 302 131 l 14 131 l 14 -136 "},"_":{"ha":1428,"x_min":14,"x_max":1414,"o":"m 14 1 l 14 -244 l 1414 -244 l 1414 1 l 14 1 "},"a":{"ha":1428,"x_min":14,"x_max":1414,"o":"m 714 647 l 839 378 l 589 378 l 714 647 m 14 -1 l 414 -1 l 486 155 l 942 155 l 1014 -1 l 1414 -1 l 925 911 l 503 911 l 14 -1 "},"b":{"ha":1250,"x_min":14,"x_max":1238,"o":"m 369 216 l 369 338 l 847 338 q 886 320 869 338 q 903 277 903 301 q 886 235 903 254 q 847 216 869 216 l 369 216 m 781 694 q 820 676 803 694 q 836 633 836 657 q 820 591 836 610 q 781 572 803 572 l 369 572 l 369 694 l 781 694 m 1064 471 q 1142 552 1114 503 q 1170 667 1170 602 q 1148 771 1171 724 q 1085 849 1125 819 q 992 895 1045 879 q 880 911 940 911 l 14 911 l 14 -1 l 947 -1 q 1154 64 1071 -1 q 1236 244 1238 130 q 1190 387 1236 328 q 1064 471 1143 445 "},"c":{"ha":1270,"x_min":13,"x_max":1257,"o":"m 892 378 q 804 292 869 316 q 636 267 739 267 q 552 272 589 268 q 479 288 515 276 q 420 319 444 300 q 383 370 397 338 q 370 445 369 401 l 370 467 q 383 543 369 511 q 420 594 397 575 q 479 625 444 613 q 552 640 515 636 q 636 645 588 644 q 804 621 739 645 q 892 534 869 597 l 1257 534 q 636 935 1227 933 q 439 921 528 934 q 270 876 351 908 q 133 795 189 844 q 45 668 78 745 q 14 490 13 590 l 14 423 q 45 244 13 322 q 133 117 78 167 q 270 36 189 68 q 440 -9 351 4 q 636 -22 529 -22 q 1257 378 1227 -22 l 892 378 "},"d":{"ha":1272,"x_min":14,"x_max":1259,"o":"m 903 455 q 864 336 903 384 q 758 288 825 288 l 369 288 l 369 622 l 758 622 q 864 574 825 622 q 903 455 903 527 m 14 911 l 14 -1 l 825 -1 q 1047 60 947 -2 q 1204 227 1148 122 q 1259 455 1259 332 q 1204 684 1259 578 q 1047 850 1148 789 q 825 911 947 912 l 14 911 "},"e":{"ha":1094,"x_min":14,"x_max":1080,"o":"m 14 -1 l 1080 -1 l 1080 233 l 369 233 l 369 350 l 1080 350 l 1080 561 l 369 561 l 369 677 l 1080 677 l 1080 911 l 14 911 l 14 -1 "},"f":{"ha":1139,"x_min":14,"x_max":1125,"o":"m 14 -1 l 369 -1 l 369 244 l 1036 244 l 1036 511 l 369 511 l 369 622 l 1125 622 l 1125 911 l 14 911 l 14 -1 "},"g":{"ha":1266,"x_min":13,"x_max":1253,"o":"m 633 345 l 920 345 q 819 282 882 297 q 636 268 755 268 q 552 273 588 269 q 479 288 515 277 q 420 319 443 300 q 382 370 397 338 q 369 446 368 402 l 369 468 q 382 543 368 511 q 420 594 397 575 q 479 625 443 613 q 552 641 515 637 q 636 646 588 645 q 778 629 715 646 q 875 568 842 613 l 1253 568 q 636 935 1200 935 q 493 928 560 935 q 362 906 427 922 q 246 868 298 891 q 150 809 194 844 q 76 729 106 774 q 30 623 46 684 q 14 490 14 562 l 14 423 q 45 245 13 323 q 133 118 77 168 q 269 37 188 68 q 439 -8 350 5 q 636 -22 528 -21 q 872 12 762 -22 q 1057 120 983 46 l 1075 -22 l 1253 -22 l 1253 501 l 633 501 l 633 345 "},"h":{"ha":1272,"x_min":14,"x_max":1259,"o":"m 903 312 l 903 1 l 1259 1 l 1259 912 l 903 912 l 903 601 l 369 601 l 369 912 l 14 912 l 14 1 l 369 1 l 369 312 l 903 312 "},"i":{"ha":382,"x_min":14,"x_max":369,"o":"m 14 912 l 14 1 l 369 1 l 369 912 l 14 912 "},"j":{"ha":1272,"x_min":13,"x_max":1258,"o":"m 903 445 q 889 369 903 401 q 852 318 875 337 q 792 288 829 299 q 720 272 756 276 q 635 267 684 268 q 551 272 587 268 q 479 288 515 276 q 420 318 443 299 q 382 369 397 337 q 369 445 368 401 l 369 534 l 14 534 l 14 422 q 45 244 13 322 q 133 117 77 167 q 269 36 188 68 q 438 -9 349 4 q 635 -22 528 -22 q 1258 422 1258 -22 l 1258 911 l 903 911 l 903 445 "},"k":{"ha":1339,"x_min":14,"x_max":1325,"o":"m 524 312 l 859 1 l 1325 1 l 852 456 l 1325 912 l 859 912 l 524 601 l 369 601 l 369 912 l 14 912 l 14 1 l 369 1 l 369 312 l 524 312 "},"l":{"ha":1094,"x_min":14,"x_max":1080,"o":"m 14 912 l 14 1 l 1080 1 l 1080 290 l 369 290 l 369 912 l 14 912 "},"m":{"ha":1628,"x_min":14,"x_max":1614,"o":"m 14 1 l 369 1 l 369 487 l 725 1 l 903 1 l 1259 487 l 1259 1 l 1614 1 l 1614 912 l 1170 912 l 814 456 l 458 912 l 14 912 l 14 1 "},"n":{"ha":1272,"x_min":14,"x_max":1259,"o":"m 903 429 l 503 912 l 14 912 l 14 1 l 369 1 l 369 557 l 859 1 l 1259 1 l 1259 912 l 903 912 l 903 429 "},"o":{"ha":1272,"x_min":14,"x_max":1259,"o":"m 636 935 q 493 928 560 935 q 362 906 427 922 q 246 868 298 891 q 150 809 194 844 q 76 729 106 774 q 30 623 46 684 q 14 490 14 562 l 14 423 q 30 290 14 351 q 76 184 46 230 q 150 104 106 139 q 246 45 194 68 q 362 6 298 22 q 493 -15 427 -9 q 636 -22 560 -22 q 833 -8 744 -22 q 1003 36 922 5 q 1139 118 1084 68 q 1226 245 1194 168 q 1258 423 1259 323 l 1258 490 q 636 935 1258 935 m 903 446 q 889 370 903 402 q 852 319 875 338 q 793 288 829 300 q 720 272 757 276 q 636 267 684 268 q 552 272 588 268 q 479 288 515 276 q 420 319 443 300 q 382 370 397 338 q 369 446 368 402 l 369 468 q 382 543 368 511 q 420 594 397 575 q 479 625 443 613 q 552 641 515 637 q 636 646 588 645 q 720 641 684 645 q 793 625 757 637 q 852 594 829 613 q 889 543 875 575 q 903 468 903 511 l 903 446 "},"p":{"ha":1250,"x_min":14,"x_max":1238,"o":"m 369 489 l 369 644 l 803 644 q 857 621 835 644 q 880 566 880 599 q 857 511 880 534 q 803 489 835 489 l 369 489 m 14 911 l 14 -1 l 369 -1 l 369 222 l 892 222 q 1064 267 984 220 q 1191 394 1144 314 q 1236 566 1238 474 q 1191 739 1238 659 q 1064 865 1144 819 q 892 911 984 911 l 14 911 "},"q":{"ha":1272,"x_min":13,"x_max":1259,"o":"m 1259 489 q 1227 667 1259 589 q 1139 794 1194 745 q 1003 876 1084 844 q 833 920 922 907 q 636 934 744 933 q 439 920 528 933 q 270 876 351 907 q 133 794 189 844 q 45 667 78 745 q 14 489 13 589 l 14 422 q 45 244 13 321 q 133 117 78 166 q 270 36 189 67 q 439 -9 351 4 q 636 -22 528 -22 q 766 -17 699 -22 l 880 -200 l 1259 -200 l 1073 69 q 1259 422 1259 178 l 1259 489 m 636 267 q 552 271 588 267 q 479 287 515 275 q 420 318 443 299 q 382 369 397 337 q 369 444 368 401 l 369 467 q 382 542 368 510 q 420 593 397 574 q 479 624 443 612 q 552 640 515 635 q 636 644 588 644 q 721 640 684 644 q 793 624 757 635 q 852 593 829 612 q 889 542 875 574 q 903 467 903 510 l 903 444 q 889 369 903 401 q 852 318 875 337 q 793 287 829 299 q 720 271 757 275 q 636 267 684 267 "},"r":{"ha":1250,"x_min":14,"x_max":1238,"o":"m 14 911 l 14 0 l 369 0 l 369 222 l 686 222 l 858 0 l 1236 0 l 1038 256 q 1181 380 1127 297 q 1236 567 1236 464 q 1191 739 1238 659 q 1064 866 1144 819 q 892 911 984 912 l 14 911 m 802 645 q 858 622 835 645 q 880 567 880 600 q 857 512 880 535 q 802 490 835 490 l 369 490 l 369 645 l 802 645 "},"s":{"ha":1264,"x_min":13,"x_max":1251,"o":"m 386 612 q 408 656 386 637 q 468 684 430 674 q 546 697 507 693 q 632 701 586 701 q 788 681 726 701 q 878 612 850 662 l 1251 612 q 1222 719 1244 671 q 1170 800 1200 767 q 1093 858 1139 833 q 1000 897 1047 882 q 888 919 952 911 q 766 931 824 928 q 632 935 707 934 q 14 612 14 935 q 18 572 14 591 q 298 385 46 433 q 625 353 403 365 q 694 350 669 351 q 753 346 719 349 q 806 339 787 342 q 843 331 825 336 q 870 318 862 326 q 878 300 878 310 q 856 257 878 275 q 796 229 833 239 q 718 216 758 220 q 632 212 677 212 q 477 231 540 212 q 386 300 414 251 l 14 300 q 42 194 21 241 q 95 113 64 146 q 171 55 125 79 q 265 16 217 31 q 376 -7 313 2 q 498 -19 439 -16 q 632 -22 557 -22 q 820 -14 734 -22 q 987 17 905 -5 q 1126 75 1069 39 q 1216 167 1182 110 q 1251 300 1251 224 q 1246 340 1251 321 q 966 528 1218 480 q 640 559 861 548 q 446 575 505 566 q 386 612 386 585 "},"t":{"ha":1227,"x_min":14,"x_max":1214,"o":"m 791 -1 l 791 622 l 1214 622 l 1214 911 l 14 911 l 14 622 l 436 622 l 436 -1 l 791 -1 "},"u":{"ha":1272,"x_min":13,"x_max":1259,"o":"m 903 445 q 889 369 903 401 q 852 318 875 337 q 793 288 829 299 q 721 272 757 276 q 636 267 684 268 q 552 272 588 268 q 479 288 515 276 q 420 318 443 299 q 382 369 397 337 q 369 445 368 401 l 369 912 l 14 912 l 14 422 q 45 244 13 322 q 133 117 78 167 q 270 36 189 68 q 440 -9 351 4 q 636 -22 529 -22 q 832 -9 743 -22 q 1003 36 922 4 q 1139 117 1084 68 q 1227 244 1194 167 q 1259 422 1259 322 l 1259 912 l 903 912 l 903 445 "},"v":{"ha":1383,"x_min":14,"x_max":1370,"o":"m 414 911 l 14 911 l 480 -1 l 903 -1 l 1370 911 l 970 911 l 692 278 l 414 911 "},"w":{"ha":2072,"x_min":14,"x_max":2059,"o":"m 1447 334 l 1236 911 l 836 911 l 625 334 l 414 911 l 14 911 l 414 -1 l 836 -1 l 1036 455 l 1236 -1 l 1659 -1 l 2059 911 l 1659 911 l 1447 334 "},"x":{"ha":1428,"x_min":14,"x_max":1414,"o":"m 714 645 l 458 911 l 14 911 l 492 455 l 14 -1 l 458 -1 l 714 266 l 970 -1 l 1414 -1 l 936 455 l 1414 911 l 970 911 l 714 645 "},"y":{"ha":1405,"x_min":14,"x_max":1392,"o":"m 436 911 l 14 911 l 525 311 l 525 -1 l 880 -1 l 880 311 l 1392 911 l 970 911 l 703 584 l 436 911 "},"z":{"ha":1205,"x_min":14,"x_max":1192,"o":"m 614 622 l 14 289 l 14 -1 l 1192 -1 l 1192 289 l 570 289 l 1192 622 l 1192 911 l 14 911 l 14 622 l 614 622 "},"{":{"ha":783,"x_min":14,"x_max":770,"o":"m 236 174 q 327 -46 235 47 q 547 -137 420 -138 l 770 -137 l 770 130 l 614 130 q 535 162 568 130 q 503 241 503 195 q 441 390 503 328 q 292 452 378 452 q 441 514 379 452 q 503 663 503 576 q 535 742 503 709 q 614 774 568 774 l 770 774 l 770 1041 l 547 1041 q 328 950 420 1043 q 236 730 235 857 l 236 686 q 197 591 236 630 q 102 552 158 552 l 14 552 l 14 452 l 14 352 l 102 352 q 197 313 158 352 q 236 218 236 274 l 236 174 "},"|":{"ha":382,"x_min":14,"x_max":369,"o":"m 14 1065 l 14 -136 l 369 -136 l 369 1065 l 14 1065 "},"}":{"ha":783,"x_min":14,"x_max":770,"o":"m 547 218 q 586 313 547 274 q 680 352 625 352 l 770 352 l 770 452 l 770 552 l 680 552 q 586 591 625 552 q 547 686 547 631 l 547 730 q 506 886 548 813 q 392 1000 464 958 q 236 1041 319 1042 l 14 1041 l 14 774 l 169 774 q 248 742 215 774 q 280 663 280 709 q 342 514 280 576 q 492 452 404 452 q 342 390 404 452 q 280 241 280 328 q 248 162 280 195 q 169 130 215 130 l 14 130 l 14 -137 l 236 -137 q 456 -46 363 -138 q 547 174 549 47 l 547 218 "},"¦":{"ha":382,"x_min":14,"x_max":369,"o":"m 369 598 l 369 1065 l 14 1065 l 14 598 l 369 598 m 14 331 l 14 -136 l 369 -136 l 369 331 l 14 331 "},"©":{"ha":1330,"x_min":14,"x_max":1316,"o":"m 825 403 q 665 338 793 338 q 555 357 602 338 q 498 441 498 385 l 498 454 q 514 507 498 485 q 556 539 530 528 q 610 554 583 549 q 665 558 636 558 q 776 538 728 558 q 825 493 810 524 l 833 493 l 1055 493 q 981 633 1044 582 q 833 705 920 684 q 665 726 745 726 q 498 705 586 726 q 408 671 450 693 q 275 467 275 606 l 275 429 q 292 339 275 379 q 341 270 310 298 q 412 222 373 241 q 498 191 450 203 q 665 170 586 170 q 833 191 745 170 q 924 224 881 203 q 1055 403 1041 283 l 833 403 l 825 403 m 907 113 q 665 81 792 81 q 422 113 538 81 q 340 142 377 125 q 276 175 302 159 q 228 213 250 191 q 194 252 207 235 q 172 292 181 268 q 158 328 162 315 q 151 363 153 340 q 148 391 148 385 q 147 413 148 396 l 147 483 q 300 734 147 652 q 421 783 355 764 l 422 783 l 422 783 q 665 814 538 814 q 908 783 792 814 q 1161 600 1105 728 q 1183 483 1181 553 l 1183 413 q 1030 162 1183 243 q 908 113 977 133 l 907 113 m 1095 45 q 1257 193 1198 102 q 1316 413 1316 285 l 1316 483 q 1287 645 1316 572 q 1204 769 1257 718 q 1087 855 1152 820 q 944 911 1023 890 q 665 948 808 948 q 386 911 522 948 q 235 850 304 888 q 73 703 132 794 q 14 483 14 611 l 14 413 q 33 280 14 342 q 87 172 53 218 q 169 89 121 126 q 271 27 217 52 q 386 -15 324 2 q 665 -52 517 -52 q 944 -15 813 -52 q 1095 45 1025 7 "},"®":{"ha":1330,"x_min":14,"x_max":1316,"o":"m 529 465 l 529 545 l 758 545 q 788 533 776 545 q 801 505 801 522 q 788 477 801 488 q 758 465 776 465 l 529 465 m 998 505 q 942 629 998 577 q 807 682 886 682 l 529 682 l 332 682 l 332 545 l 332 465 l 332 328 l 332 214 l 529 214 l 529 328 l 699 328 l 789 214 l 998 214 l 888 345 q 968 410 939 368 q 998 505 998 452 m 1183 413 q 1030 162 1183 243 q 909 113 975 132 l 908 113 l 907 113 q 665 81 792 81 q 422 113 538 81 q 340 142 377 125 q 276 175 302 159 q 228 213 250 191 q 194 252 207 235 q 172 292 181 268 q 158 328 162 315 q 151 363 153 340 q 148 391 148 385 q 147 413 148 396 l 147 483 q 300 734 147 652 q 421 783 355 764 l 422 783 l 422 783 q 665 814 538 814 q 908 783 792 814 q 1161 600 1105 728 q 1183 483 1181 553 l 1183 413 m 1316 483 q 1287 645 1316 572 q 1204 769 1257 718 q 1087 855 1152 820 q 944 911 1023 890 q 665 948 808 948 q 386 911 522 948 q 235 850 304 888 q 73 703 132 794 q 14 483 14 611 l 14 413 q 33 280 14 342 q 87 172 53 218 q 169 89 121 126 q 271 27 217 52 q 386 -15 324 2 q 665 -52 517 -52 q 944 -15 813 -52 q 1095 45 1025 7 q 1257 193 1198 102 q 1316 413 1316 285 l 1316 483 "},"±":{"ha":1094,"x_min":14,"x_max":1080,"o":"m 14 245 l 14 0 l 1080 0 l 1080 245 l 14 245 m 703 334 l 703 511 l 1080 511 l 1080 756 l 703 756 l 703 934 l 391 934 l 391 756 l 14 756 l 14 511 l 391 511 l 391 334 l 703 334 "},"×":{"ha":1105,"x_min":14,"x_max":1091,"o":"m 14 265 l 159 41 l 552 297 l 946 41 l 1091 265 l 798 456 l 1091 647 l 946 871 l 552 615 l 159 871 l 14 647 l 307 456 l 14 265 "},"÷":{"ha":1094,"x_min":14,"x_max":1080,"o":"m 1080 325 l 1080 591 l 14 591 l 14 325 l 1080 325 m 703 236 l 391 236 l 391 14 l 703 14 l 703 236 m 391 680 l 703 680 l 703 903 l 391 903 l 391 680 "},"™":{"ha":1628,"x_min":14,"x_max":1614,"o":"m 239 758 l 239 426 l 429 426 l 429 758 l 654 758 l 654 912 l 14 912 l 14 758 l 239 758 m 1614 426 l 1614 912 l 1377 912 l 1187 669 l 998 912 l 760 912 l 760 426 l 950 426 l 950 685 l 1140 426 l 1235 426 l 1424 685 l 1424 426 l 1614 426 "},"−":{"ha":1094,"x_min":14,"x_max":1080,"o":"m 14 589 l 14 323 l 1080 323 l 1080 589 l 14 589 "},"≤":{"ha":1094,"x_min":14,"x_max":1080,"o":"m 14 722 l 14 511 l 1080 322 l 1080 534 l 576 623 l 1080 722 l 1080 934 l 14 722 m 14 245 l 14 0 l 1080 0 l 1080 245 l 14 245 "},"≥":{"ha":1094,"x_min":14,"x_max":1080,"o":"m 14 722 l 517 623 l 14 534 l 14 322 l 1080 511 l 1080 722 l 14 934 l 14 722 m 14 0 l 1080 0 l 1080 245 l 14 245 l 14 0 "}}}
